<?xml version="1.0" standalone="no"?>
<!DOCTYPE svg PUBLIC "-//W3C//DTD SVG 20010904//EN"
 "http://www.w3.org/TR/2001/REC-SVG-20010904/DTD/svg10.dtd">
<svg version="1.0" xmlns="http://www.w3.org/2000/svg"
 width="225.000000pt" height="225.000000pt" viewBox="0 0 225.000000 225.000000"
 preserveAspectRatio="xMidYMid meet">

<g transform="translate(0.000000,225.000000) scale(0.100000,-0.100000)"
fill="#000000" stroke="none">
<path d="M1914 2092 c-41 -30 -84 -100 -84 -138 0 -11 -23 -46 -51 -77 l-51
-57 -66 0 -67 0 -70 93 -70 92 -127 3 -127 3 -65 -78 c-44 -52 -66 -87 -66
-104 0 -43 29 -197 44 -232 l14 -32 46 97 c47 99 73 128 114 128 36 0 60 -17
82 -60 41 -81 12 -180 -78 -268 -65 -63 -305 -261 -653 -540 l-296 -237 -102
-269 c-56 -148 -100 -271 -98 -273 2 -2 123 40 268 93 l264 97 157 196 c602
751 660 815 765 847 87 26 183 -20 183 -88 0 -50 -19 -69 -119 -118 -50 -24
-91 -47 -91 -51 0 -11 115 -39 197 -49 l77 -8 76 62 75 62 3 131 3 130 -97 74
-96 74 5 65 c6 64 7 66 63 118 37 34 66 52 82 52 37 0 107 45 131 84 16 25 21
50 21 102 0 38 -4 75 -8 81 -4 7 -39 15 -77 19 -67 6 -72 5 -111 -24z m-229
-412 c13 -41 -66 -142 -128 -163 -26 -10 -57 10 -57 35 0 80 164 194 185 128z"/>
</g>
</svg>
